<svg width="300" height="70" viewBox="0 0 300 70" fill="none" xmlns="http://www.w3.org/2000/svg">
<path fill-rule="evenodd" clip-rule="evenodd" d="M53.9626 34.6406C54.9863 34.1017 55.8942 33.3615 56.6335 32.4632C57.3727 31.5649 57.9285 30.5264 58.2685 29.4081C63.9201 9.28651 11.5918 4.06495 13.0559 21.1279C13.3896 24.8747 17.4802 27.6275 22.3137 27.8351C26.286 28.1846 28.2129 28.2065 31.7222 29.9106V17.2827H37.8475V33.3844C42.8101 36.159 48.7523 37.6228 53.9949 34.6078L53.9626 34.6406ZM15.7471 34.7826C20.0531 32.4121 23.81 33.0348 28.1375 34.7826C29.3863 35.2633 30.5596 35.875 31.7115 36.3884L37.8367 39.3815C40.8294 40.6685 44.0057 41.4614 47.2453 41.7301C52.0787 41.9377 56.1694 44.6905 56.5031 48.4373C58.0102 65.5003 5.68189 60.2787 11.2904 40.1571C11.6371 39.014 12.2064 37.9532 12.9645 37.0375C13.7227 36.1218 14.6542 35.3699 15.704 34.8263L15.7471 34.7826ZM37.8367 43.6418L31.7115 40.5285V52.2388H37.8367V43.6418Z" fill="#7952B5"/>
<path fill-rule="evenodd" clip-rule="evenodd" d="M93.9619 34.1628C95.5255 33.7718 96.9074 32.8663 97.8799 31.5956C98.8523 30.3249 99.3572 28.7649 99.3112 27.1728C99.3112 22.5852 96.2188 19.3869 90.6204 18.6922C89.1614 18.524 87.6923 18.4563 86.2237 18.4896H73.913V52.4843H86.4289C88.0288 52.5197 89.6293 52.4569 91.2213 52.2962C95.8085 51.645 100.645 48.6493 100.645 42.3395C100.645 37.9979 98.4465 35.2916 94.0059 34.1628H93.9619ZM80.7718 23.8153H85.7694C86.6021 23.813 87.4342 23.8614 88.2608 23.96C89.3224 24.0272 90.3194 24.4864 91.0538 25.2463C91.7883 26.0061 92.2062 27.011 92.2247 28.0613C92.2432 29.1115 91.8607 30.1301 91.1535 30.9147C90.4462 31.6993 89.4659 32.1924 88.4074 32.2959C87.5949 32.3891 86.7778 32.4374 85.9599 32.4406H80.7718V23.7574V23.8153ZM89.0523 47.0718C88.4074 47.0718 87.5867 47.0718 86.766 47.0718H80.7718V37.4624H86.5168C87.3352 37.4669 88.1525 37.52 88.9643 37.6216C89.5752 37.6193 90.1799 37.7428 90.7398 37.9841C91.2996 38.2255 91.8025 38.5793 92.2161 39.0232C92.6298 39.4671 92.9452 39.9913 93.1424 40.5622C93.3395 41.1332 93.414 41.7385 93.361 42.3395C93.3925 42.9344 93.303 43.5295 93.0976 44.0897C92.8922 44.6498 92.5753 45.1636 92.1654 45.6007C91.7555 46.0379 91.261 46.3894 90.7112 46.6346C90.1614 46.8799 89.5674 47.0137 88.9643 47.0284L89.0523 47.0718ZM129.443 38.8372C129.443 31.7025 125.149 25.5954 117.015 25.5954C108.881 25.5954 103.547 31.4565 103.547 39.4885C103.547 48.6927 109.189 53.179 116.473 53.179C122.701 53.179 127.699 50.0675 129.033 43.9603H122.115C121.94 45.2587 121.268 46.4418 120.238 47.2676C119.209 48.0934 117.898 48.4996 116.575 48.4032C113.381 48.4032 110.889 46.6666 110.435 41.1672H129.297C129.377 40.3981 129.411 39.6249 129.399 38.8517L129.443 38.8372ZM116.722 30.3856C120.005 30.3856 121.91 32.5998 122.35 36.7388H110.625C111.226 32.3972 113.468 30.3856 116.663 30.3856H116.722ZM149.595 52.4988H156.321C155.992 50.2995 155.825 48.0794 155.823 45.8562V37.3756C155.823 35.9284 155.823 34.568 155.677 33.3379C155.281 28.8081 152.482 25.6098 145.051 25.6098C138.72 25.6098 133.884 28.9529 133.679 34.8719H140.361C140.567 31.9775 142.062 30.4435 144.758 30.4435C147.455 30.4435 148.657 31.7749 148.847 33.5984C148.931 34.4157 148.965 35.2373 148.95 36.0586V36.5941H147.25C137.621 36.5941 132.594 39.8503 132.594 45.6101C132.594 50.5885 136.536 53.2514 141.124 53.2514C143.443 53.345 145.736 52.7448 147.704 51.5292L149.008 48.7216L149.507 52.5567L149.595 52.4988ZM143.85 48.4177C141.417 48.4177 139.819 47.3323 139.819 45.0168C139.819 41.558 143.512 40.3279 148.994 40.6752V42.7881C148.994 46.4351 146.649 48.3598 143.85 48.3598V48.4177ZM186.952 32.9471C186.409 28.3595 183.17 25.6098 177.528 25.6098C175.252 25.5 173.004 26.1416 171.138 27.4333L169.101 30.5303V26.29H162.213V52.4988H169.101V40.516C169.101 33.28 171.739 30.3856 175.081 30.3856C175.733 30.3152 176.393 30.3834 177.016 30.5856C177.64 30.7878 178.212 31.1193 178.695 31.5579C179.178 31.9965 179.561 32.5321 179.817 33.1286C180.073 33.7251 180.197 34.3689 180.181 35.0166C180.269 36.3481 180.269 37.5782 180.269 38.6636V52.4988H187.157V37.7084C187.187 36.1139 187.119 34.519 186.952 32.9327V32.9471ZM224.323 18.4751H217.494V33.1063H201.373V18.4896H194.485V52.4843H201.373V38.5478H217.494V52.4843H224.323V18.4896V18.4751ZM255.203 26.2611H248.315V39.6187C248.315 45.5233 245.926 48.3019 242.452 48.3019C241.816 48.3657 241.173 48.2998 240.563 48.1083C239.954 47.9169 239.39 47.6039 238.908 47.1888C238.426 46.7737 238.035 46.2653 237.76 45.695C237.485 45.1248 237.331 44.5048 237.308 43.8735C237.162 42.5421 237.118 41.1093 237.118 40.27V26.2321H230.23V41.7027C230.188 43.2986 230.271 44.8952 230.479 46.4785C231.08 50.082 234.377 53.1356 239.858 53.1356C242.126 53.2325 244.366 52.6086 246.248 51.3555L248.285 48.0125V52.4409H255.173V26.2756L255.203 26.2611ZM277.303 25.5809C274.871 25.4677 272.464 26.105 270.415 27.4044L268.422 30.2988V16.3043H261.534V52.4843H268.422V48.9821L270.166 51.7028C272.085 52.7125 274.236 53.2112 276.409 53.15C283.239 53.15 289.13 48.3164 289.13 38.8662C289.13 31.1237 284.734 25.5664 277.303 25.5664V25.5809ZM275.061 48.3888C271.866 48.3888 268.422 46.2614 268.422 40.2989V39.0688C268.422 32.6722 271.514 30.3856 275.31 30.3856C279.399 30.3856 281.993 33.9747 281.993 39.3438C281.993 45.3931 279.047 48.4032 275.061 48.4032V48.3888Z" fill="#7952B5"/>
</svg>
